<svg width="100" height="100" viewBox="0 0 100 100" fill="none" xmlns="http://www.w3.org/2000/svg">
<path d="M36 54H64" stroke="#FEFBFC" stroke-width="4" stroke-linecap="round" stroke-linejoin="round"/>
<path d="M26 42V34.7143C26 32.1379 27.0114 29.667 28.8118 27.8452C30.6121 26.0235 33.0539 25 35.6 25H64.4C66.9461 25 69.3879 26.0235 71.1882 27.8452C72.9886 29.667 74 32.1379 74 34.7143V42" stroke="#FEFBFC" stroke-width="4" stroke-linecap="round" stroke-linejoin="round"/>
<path d="M35.8571 63.2143V51.4286C35.8571 49.5638 35.3042 47.7409 34.2681 46.1903C33.2321 44.6398 31.7596 43.4313 30.0367 42.7177C28.3139 42.0041 26.4181 41.8174 24.5892 42.1812C22.7602 42.545 21.0802 43.443 19.7616 44.7616C18.443 46.0802 17.545 47.7602 17.1812 49.5892C16.8174 51.4181 17.0041 53.3139 17.7177 55.0367C18.4313 56.7596 19.6398 58.2321 21.1903 59.2681C22.7409 60.3042 24.5638 60.8571 26.4286 60.8571V72.6429C26.4286 73.268 26.6769 73.8676 27.119 74.3096C27.561 74.7517 28.1606 75 28.7857 75H71.2143C71.8394 75 72.439 74.7517 72.881 74.3096C73.3231 73.8676 73.5714 73.268 73.5714 72.6429V60.8571C75.4362 60.8571 77.2591 60.3042 78.8097 59.2681C80.3602 58.2321 81.5687 56.7596 82.2823 55.0367C82.9959 53.3139 83.1826 51.4181 82.8188 49.5892C82.455 47.7602 81.557 46.0802 80.2384 44.7616C78.9198 43.443 77.2398 42.545 75.4108 42.1812C73.5819 41.8174 71.6861 42.0041 69.9633 42.7177C68.2404 43.4313 66.7679 44.6398 65.7319 46.1903C64.6958 47.7409 64.1429 49.5638 64.1429 51.4286V63.2143" stroke="#FEFBFC" stroke-width="4" stroke-linecap="round" stroke-linejoin="round"/>
</svg>
