<svg width="100" height="100" viewBox="0 0 100 100" fill="none" xmlns="http://www.w3.org/2000/svg">
<path d="M75 35H32" stroke="#FEFBFC" stroke-width="4" stroke-linecap="round" stroke-linejoin="round"/>
<path d="M73 17H34" stroke="#FEFBFC" stroke-width="4" stroke-linecap="round" stroke-linejoin="round"/>
<path d="M73.3563 17C73.3563 17 77 26.2227 77 47.8061C77 69.3895 73.869 80.3061 73.869 80.3061C73.869 81.0206 73.6307 81.7058 73.2067 82.211C72.7827 82.7162 72.2075 83 71.6078 83H35.4298C34.8301 83 34.255 82.7162 33.8309 82.211C33.4069 81.7058 33.1687 81.0206 33.1687 80.3061C29.6965 54.7841 30.6565 40.9271 34.1865 17" stroke="#FEFBFC" stroke-width="4" stroke-linecap="round" stroke-linejoin="round"/>
<path d="M31.1052 40.1784C31.1052 35.7454 18.4232 22.7774 15.3288 38.7376C12.2344 54.6978 32 74 32 74" stroke="#FEFBFC" stroke-width="4" stroke-linecap="round" stroke-linejoin="round"/>
<path d="M44 44L45 75" stroke="#FEFBFC" stroke-width="4" stroke-linecap="round" stroke-linejoin="round"/>
<path d="M64 44L63 75" stroke="#FEFBFC" stroke-width="4" stroke-linecap="round" stroke-linejoin="round"/>
</svg>
