<svg width="100" height="100" viewBox="0 0 100 100" fill="none" xmlns="http://www.w3.org/2000/svg">
<path d="M26.8916 45.2108C26.8831 42.1658 27.4746 39.149 28.6321 36.3333C29.7897 33.5176 31.4906 30.9584 33.6374 28.8022C35.7842 26.6461 38.3346 24.9353 41.1426 23.7681C43.9507 22.6008 46.961 22 50.0013 22C53.0415 22 56.0519 22.6008 58.8599 23.7681C61.668 24.9353 64.2184 26.6461 66.3652 28.8022C68.512 30.9584 70.2129 33.5176 71.3704 36.3333C72.528 39.149 73.1195 42.1658 73.111 45.2108V45.2108C73.111 56.7565 75.5228 63.4563 77.647 67.1181C77.8758 67.5094 77.9975 67.9542 78 68.4076C78.0024 68.8611 77.8854 69.3071 77.6607 69.7008C77.4361 70.0945 77.1118 70.4219 76.7205 70.65C76.3292 70.8781 75.8848 70.9988 75.432 71H24.5679C24.1152 70.9988 23.6707 70.8781 23.2794 70.6499C22.888 70.4218 22.5637 70.0943 22.3391 69.7005C22.1145 69.3068 21.9975 68.8606 22 68.4071C22.0025 67.9536 22.1244 67.5088 22.3534 67.1176C24.4787 63.4556 26.8916 56.7559 26.8916 45.2108H26.8916Z" stroke="#FEFBFC" stroke-width="4" stroke-linecap="round" stroke-linejoin="round"/>
<path d="M40 71V73.4C40 75.9461 41.0536 78.3879 42.9289 80.1882C44.8043 81.9886 47.3478 83 50 83C52.6522 83 55.1957 81.9886 57.0711 80.1882C58.9464 78.3879 60 75.9461 60 73.4V71" stroke="#FEFBFC" stroke-width="4" stroke-linecap="round" stroke-linejoin="round"/>
<path d="M68 17C73.1517 20.1721 77.3045 24.671 80 30" stroke="#FEFBFC" stroke-width="4" stroke-linecap="round" stroke-linejoin="round"/>
<path d="M20 30C22.6955 24.671 26.8483 20.1721 32 17" stroke="#FEFBFC" stroke-width="4" stroke-linecap="round" stroke-linejoin="round"/>
</svg>
