<svg width="100" height="100" viewBox="0 0 100 100" fill="none" xmlns="http://www.w3.org/2000/svg">
<path d="M50 37C50 34.3478 51.0698 31.8043 52.974 29.9289C54.8782 28.0536 57.4609 27 60.1538 27H80.4615C81.1348 27 81.7804 27.2634 82.2565 27.7322C82.7326 28.2011 83 28.837 83 29.5V69.5C83 70.163 82.7326 70.7989 82.2565 71.2678C81.7804 71.7366 81.1348 72 80.4615 72H60.1538C57.4609 72 54.8782 73.0536 52.974 74.9289C51.0698 76.8043 50 79.3478 50 82" stroke="#FEFBFC" stroke-width="4" stroke-linecap="round" stroke-linejoin="round"/>
<path d="M17 69.5C17 70.163 17.2674 70.7989 17.7435 71.2678C18.2196 71.7366 18.8652 72 19.5385 72H39.8462C42.5391 72 45.1218 73.0536 47.026 74.9289C48.9302 76.8043 50 79.3478 50 82V37C50 34.3478 48.9302 31.8043 47.026 29.9289C45.1218 28.0536 42.5391 27 39.8462 27H19.5385C18.8652 27 18.2196 27.2634 17.7435 27.7322C17.2674 28.2011 17 28.837 17 29.5V69.5Z" stroke="#FEFBFC" stroke-width="4" stroke-linecap="round" stroke-linejoin="round"/>
</svg>
