<svg width="100" height="100" viewBox="0 0 100 100" fill="none" xmlns="http://www.w3.org/2000/svg">
<path d="M77.2727 19H22.7273C21.221 19 20 20.2414 20 21.7727V77.2273C20 78.7586 21.221 80 22.7273 80H77.2727C78.779 80 80 78.7586 80 77.2273V21.7727C80 20.2414 78.779 19 77.2727 19Z" stroke="#FEFBFC" stroke-width="4" stroke-linecap="round" stroke-linejoin="round"/>
<path d="M67 14V25" stroke="#FEFBFC" stroke-width="4" stroke-linecap="round" stroke-linejoin="round"/>
<path d="M33 14V25" stroke="#FEFBFC" stroke-width="4" stroke-linecap="round" stroke-linejoin="round"/>
<path d="M20 36H80" stroke="#FEFBFC" stroke-width="4" stroke-linecap="round" stroke-linejoin="round"/>
<path d="M38 50H47L41.8571 56.9231C42.7028 56.9231 43.5353 57.1476 44.2811 57.5769C45.0269 58.0061 45.6629 58.6267 46.1328 59.3838C46.6027 60.1409 46.892 61.0112 46.9751 61.9174C47.0582 62.8237 46.9325 63.738 46.6091 64.5795C46.2858 65.4209 45.7747 66.1635 45.1212 66.7415C44.4678 67.3195 43.6921 67.715 42.8628 67.8931C42.0335 68.0712 41.1762 68.0263 40.3669 67.7624C39.5575 67.4985 38.8211 67.0238 38.2228 66.3802" stroke="#FEFBFC" stroke-width="4" stroke-linecap="round" stroke-linejoin="round"/>
<path d="M56 54.1538L61 50V68" stroke="#FEFBFC" stroke-width="4" stroke-linecap="round" stroke-linejoin="round"/>
</svg>
