<svg width="100" height="100" viewBox="0 0 100 100" fill="none" xmlns="http://www.w3.org/2000/svg">
<path d="M77.5 77H22.5C21.0413 77 19.6424 76.4281 18.6109 75.41C17.5795 74.392 17 73.0112 17 71.5714V33.5714C17 32.1317 17.5795 30.7509 18.6109 29.7328C19.6424 28.7148 21.0413 28.1429 22.5 28.1429H33.498L38.998 20H60.998L66.498 28.1429H77.5C78.9587 28.1429 80.3576 28.7148 81.3891 29.7328C82.4205 30.7509 83 32.1317 83 33.5714V71.5714C83 73.0112 82.4205 74.392 81.3891 75.41C80.3576 76.4281 78.9587 77 77.5 77Z" stroke="#FEFBFC" stroke-width="4" stroke-linecap="round" stroke-linejoin="round"/>
<path d="M50 63C56.6274 63 62 57.6274 62 51C62 44.3726 56.6274 39 50 39C43.3726 39 38 44.3726 38 51C38 57.6274 43.3726 63 50 63Z" stroke="#FEFBFC" stroke-width="4" stroke-linecap="round" stroke-linejoin="round"/>
</svg>
