<svg width="100" height="100" viewBox="0 0 100 100" fill="none" xmlns="http://www.w3.org/2000/svg">
<path d="M32.3274 31.4832C32.2796 31.4832 32.2371 31.4885 32.1894 31.4885C32.2478 31.2221 32.3858 31.0942 32.6141 31.0836C33.6018 31.0356 34.5947 30.9983 35.5823 30.9557C35.5929 30.9557 35.6036 30.961 35.6142 30.961C35.646 30.961 35.6832 30.9557 35.7151 30.9557C35.7894 30.9503 35.8637 30.977 35.9381 30.9876C34.754 31.2487 33.5699 31.4725 32.3168 31.4832C32.3274 31.4885 32.3274 31.4885 32.3274 31.4832ZM78.7564 58.6219C78.6025 58.7071 78.4325 58.7551 78.2679 58.819C77.9706 58.9363 77.6732 59.0535 77.3759 59.176C76.9936 59.3306 76.6962 59.5917 76.5157 59.97C76.2502 60.5402 75.7989 60.9451 75.2891 61.2968C75.1511 61.3928 75.0077 61.4887 74.8484 61.6006C74.9599 61.7231 75.0343 61.8031 75.1086 61.8883C75.7883 62.6503 76.5688 63.2844 77.4184 63.8386C77.6732 64.0038 77.806 64.2063 77.7582 64.5153C77.7423 64.6219 77.7582 64.7391 77.7529 64.851C77.7157 65.3732 77.5033 65.645 76.9883 65.7622C76.6962 65.8315 76.3883 65.8581 76.0856 65.8688C75.6024 65.8848 75.1245 65.8475 74.6413 65.8795C74.1369 65.9114 73.6165 65.9381 73.1227 66.0713C72.4112 66.2631 71.705 66.2951 70.9829 66.2418C70.4572 66.1992 69.9315 66.1299 69.4059 66.0766C70.9245 66.6041 72.4059 67.185 73.813 67.9363C73.8236 68.5065 73.5741 68.9274 73.2342 69.3058C72.7935 69.7907 72.2466 70.121 71.6625 70.3928C70.4625 70.947 69.1935 71.2827 67.9032 71.5278C65.3863 72.0074 62.8429 72.2258 60.2836 72.3111C59.8216 72.3271 59.3544 72.3431 58.8924 72.3377C58.6907 72.3377 58.5632 72.3964 58.4783 72.5882C58.3668 72.8546 58.234 73.1157 58.1119 73.3768C57.2464 75.2525 56.7207 77.2028 56.7844 79.2863C56.8322 80.8955 56.965 81.2685 57.0234 82.8831C57.0234 82.8724 56.9862 83.368 56.9915 83.4213C57.0074 83.5598 57.0871 83.6984 57.1243 83.8316C57.1561 83.9541 57.1986 84.0714 57.2782 84.1673C57.3685 84.2792 57.4959 84.3644 57.5915 84.471C57.6446 84.5296 57.6977 84.5669 57.7774 84.5936C57.8942 84.6362 57.9738 84.6895 58.1013 84.6895C58.1437 84.6895 58.1915 84.6788 58.2287 84.6948C58.2393 84.7001 58.319 84.7694 58.2924 84.7801C58.2765 84.7854 58.2606 84.7854 58.2446 84.7907C58.2128 84.796 58.1862 84.7961 58.1597 84.812C58.1331 84.828 58.1066 84.8547 58.0747 84.86C58.0057 84.876 57.942 84.892 57.8782 84.908C57.8464 84.9186 57.8145 84.9239 57.7933 84.9453C57.7721 84.9666 57.7561 84.9932 57.7296 85.0039C57.6765 85.0305 57.5809 85.0518 57.5225 85.0518C57.4428 85.0572 57.3685 85.0412 57.2889 85.0518C57.2145 85.0572 57.1349 85.0518 57.0605 85.0465C56.9012 85.0358 56.726 85.0465 56.572 84.9985C56.4871 84.9719 56.3968 84.9879 56.3119 84.9826C56.1313 84.9772 55.9455 84.9719 55.7649 84.9506H55.7118C55.6587 84.9506 55.6056 84.9506 55.5525 84.9506C55.4782 84.9506 55.4888 84.9612 55.4357 84.9932C55.2446 85.1051 55.0959 85.3236 54.8941 85.3982C54.7136 85.4621 54.4587 85.4302 54.2729 85.4248C53.9331 85.4142 53.71 85.2437 53.4605 85.0305C53.3861 84.9666 53.3118 84.9559 53.2215 84.9879C53.195 84.9985 53.1419 85.0145 53.0941 85.0358C53.0463 85.0572 52.9985 85.0785 52.9879 85.1051C52.9136 85.0625 52.8498 85.0465 52.7968 85.0412C52.51 85.4248 52.3242 85.7392 51.9631 85.8564C51.91 85.8724 51.8569 85.8884 51.7932 85.8937C51.1826 86.1922 50.5826 85.7925 50.11 85.5474C50.0622 85.5154 50.0197 85.4834 49.9719 85.4515C49.6109 85.1904 49.2763 84.8866 48.8675 85.3076C48.8197 85.3396 48.7613 85.3502 48.7082 85.3502C48.2887 85.3769 47.7046 85.3822 47.2214 85.3822H47.1577C46.9719 85.3822 46.7754 85.3822 46.5949 85.3236C46.579 85.3183 46.5683 85.3183 46.5524 85.3129C46.5365 85.3076 46.5259 85.3023 46.5099 85.3023C46.4515 85.2863 46.3931 85.2756 46.34 85.2596C45.7772 85.1797 45.1772 85.1797 44.4869 84.8866C44.4444 84.8707 44.4019 84.8547 44.3595 84.828C44.317 84.8067 44.2745 84.7801 44.232 84.7534C44.1789 84.7161 44.078 84.6842 44.0727 84.6095C44.1577 84.519 44.2851 84.4817 44.3807 84.4177C44.6249 84.2579 44.7577 84.0234 44.9276 83.7943C44.9754 83.725 45.0019 83.6877 45.0338 83.6024C45.055 83.5385 45.1028 83.5012 45.1347 83.4426C45.1931 83.336 45.1984 83.2081 45.2462 83.1015C45.3046 82.9737 45.4958 82.3769 45.5064 82.0518C45.5489 80.9701 45.5117 79.8831 45.3418 78.8173C45.0338 76.8777 44.2479 75.1086 43.4993 73.3289C43.5577 73.2916 43.5789 73.2596 43.6055 73.2596C44.471 73.2329 45.3311 73.2116 46.1966 73.1797C46.3931 73.169 46.5312 73.2276 46.6427 73.3875C47.1152 74.0589 47.5931 74.7143 48.0551 75.3857C48.2038 75.6042 48.3153 75.844 48.4799 76.137C48.7454 75.1033 48.9949 74.1441 49.2551 73.137C50.5507 73.0731 51.8144 73.0091 53.1206 72.9505C53.126 74.2987 53.0463 75.5882 53.1844 76.8724C53.2746 76.7339 53.333 76.59 53.3861 76.4408C53.8162 75.2205 54.3897 74.0802 55.1278 73.0145C55.2924 72.7747 55.4729 72.6202 55.7649 72.5669C56.0198 72.5136 56.3119 72.4763 56.4765 72.1246C56.3384 72.0127 56.211 71.8635 56.0464 71.7942C55.6534 71.6237 55.2499 71.4692 54.8304 71.3466C52.595 70.6912 50.3118 70.3235 47.9914 70.2223C46.6002 70.1583 45.209 70.0944 43.8179 70.0944C41.1152 70.0997 38.4071 70.137 35.7044 70.1903C34.8443 70.2063 33.9841 70.3075 33.1239 70.3661C32.5876 70.4034 32.0566 70.4141 31.515 70.2915C31.6477 70.1743 31.7911 70.0891 31.9398 70.0251C32.5132 69.764 32.954 69.359 33.3097 68.8528C33.4584 68.645 33.5965 68.4265 33.7398 68.2134C33.9257 67.9363 33.8885 67.7232 33.5752 67.6166C33.3203 67.5313 33.0389 67.4727 32.7787 67.494C31.807 67.558 30.8353 67.6645 29.8637 67.7338C29.5185 67.7605 29.1628 67.7338 28.8229 67.6752C28.4353 67.6059 28.3026 67.3288 28.4619 66.9505C28.5681 66.7054 28.7167 66.4709 28.8707 66.2471C29.0406 65.9967 29.2371 65.7622 29.4176 65.5171C29.5238 65.3732 29.6194 65.224 29.492 64.9842C29.322 65.0002 29.1309 64.9949 28.9557 65.0429C28.1857 65.2507 27.4158 65.4745 26.6459 65.693C25.7804 65.9381 24.9043 66.1246 24.0069 66.1565C23.7786 66.1672 23.5237 66.1406 23.3166 66.0446C23.0299 65.9168 23.014 65.7302 23.2476 65.5278C23.4122 65.3839 23.6193 65.2773 23.8051 65.1601C24.2246 64.8937 24.6706 64.6699 25.0583 64.3608C25.5255 63.9825 25.5149 63.5935 25.0901 63.1725C24.8565 62.9381 24.5857 62.7462 24.2937 62.5011C24.4423 62.4531 24.5538 62.4105 24.6706 62.3892C25.5999 62.2187 26.5238 62.0428 27.453 61.8777C28.1911 61.7444 28.9185 61.5899 29.6247 61.3075C30.2619 61.0517 30.9362 60.9025 31.6053 60.7427C32.6141 60.4975 33.6389 60.3057 34.6478 60.0553C35.2213 59.9114 35.7575 59.6663 36.2301 59.256C36.1292 59.176 36.0655 59.1068 35.9859 59.0588C35.3912 58.6965 34.7381 58.6965 34.0743 58.7657C33.3469 58.8457 32.6194 58.9522 31.8867 59.0268C31.4407 59.0748 30.9893 59.0535 30.5486 59.1228C29.7734 59.24 29.0088 59.3998 28.2388 59.5384C26.4017 59.8794 24.5591 60.2205 22.7219 60.5562C22.5998 60.5828 22.4671 60.5988 22.3449 60.5721C21.8352 60.4709 20.9113 59.5597 21.0069 58.819C21.0494 58.8084 21.0918 58.7871 21.1396 58.7871C21.2511 58.7977 21.3626 58.8137 21.4741 58.835C22.9184 59.1174 24.3786 59.2826 25.8547 59.2933C27.1132 59.3093 28.2973 59.1068 29.338 58.3075C29.6566 58.0624 30.0814 57.9398 30.4743 57.8279C31.6902 57.4922 32.9274 57.2151 34.1381 56.8634C34.7912 56.6716 35.4177 56.3732 36.0549 56.1174C36.3045 56.0162 36.4 55.8137 36.3894 55.5526C35.8106 55.2808 35.2159 55.1743 34.5894 55.3288C34.5469 55.3394 34.4938 55.3288 34.446 55.3341C33.5858 55.414 32.7256 55.478 31.8708 55.5739C30.2831 55.7444 28.6955 55.9203 27.1132 56.1121C25.7167 56.2826 24.3255 56.4744 22.9343 56.6609C22.4034 56.7355 21.8671 56.8208 21.2883 56.9061C21.437 56.4425 21.5963 56.1281 22.1113 56.0535C23.5025 55.8457 24.8884 55.6059 26.2636 55.3128C27.1822 55.121 28.0849 54.8385 28.9875 54.5561C29.269 54.4709 29.5398 54.2897 29.7681 54.0979C30.0814 53.8314 30.1026 53.5064 29.8318 53.208C29.3539 52.6698 28.7804 52.2382 28.0424 52.1849C27.4052 52.1369 26.7574 52.1689 26.1308 52.2382C25.4565 52.3128 24.7875 52.478 24.1131 52.6005C24.1131 52.5739 24.1025 52.5419 24.1131 52.5206C24.1397 52.462 24.1715 52.4034 24.2087 52.3554C24.5645 51.8332 25.0583 51.4922 25.6423 51.2737C26.6034 50.9167 27.6123 50.8474 28.6212 50.8847C29.8159 50.9273 31.0106 51.0499 32.2106 51.0819C32.9274 51.1032 33.6442 51.0446 34.3611 50.9646C34.8071 50.9167 35.2213 50.7142 35.5239 50.3519C35.7735 50.0481 35.7682 49.9948 35.4921 49.7124C34.4991 48.7053 33.3044 48.0499 31.961 47.6556C31.3345 47.4744 30.6973 47.3465 30.0495 47.1866C30.092 47.16 30.1238 47.1387 30.1504 47.1334C31.7699 46.9788 33.3947 46.8456 35.0089 46.6538C36.2779 46.4993 37.5363 46.2755 38.7948 46.0676C39.0603 46.025 39.3204 45.9291 39.57 45.8279C39.7877 45.7426 40.0744 45.6733 40.0797 45.3856C40.085 45.1245 39.8196 45.0392 39.6231 44.9433C39.4691 44.8634 39.3045 44.7941 39.1399 44.7355C37.7275 44.1866 36.2567 44.0055 34.7593 44.0641C33.1929 44.128 31.6318 44.2186 30.076 44.3572C28.6105 44.485 27.161 44.7461 25.7379 45.1351C25.3822 45.2364 25.0423 45.3696 24.6919 45.4815C24.5591 45.5241 24.4105 45.604 24.3043 45.3589C24.4211 45.2044 24.5432 45.0232 24.6866 44.858C25.2919 44.16 26.03 43.6218 26.8264 43.1635C28.4619 42.2204 30.2247 41.6023 32.0247 41.0694C34.6797 40.2861 37.3983 39.7639 40.1116 39.2257C40.4939 39.1511 40.8709 39.0658 41.3063 38.9699C41.2107 38.89 41.1789 38.8527 41.1417 38.8314C41.0249 38.7728 40.9081 38.7195 40.7913 38.6768C39.6178 38.2079 38.3965 38.0054 37.1381 37.9788C35.3221 37.9362 33.538 38.2026 31.7593 38.5276C30.9097 38.6822 30.0707 38.858 29.2159 39.0232C29.0459 38.8101 28.8866 38.6076 28.7327 38.4051C28.6955 38.3571 28.6902 38.2932 28.653 38.1866C29.2052 37.9948 29.561 37.5951 29.8265 37.1049C29.869 37.025 29.9592 36.9664 30.0229 36.8918C30.8194 36.0392 31.7593 35.3784 32.7575 34.787C35.0832 33.4015 37.5894 32.4317 40.1541 31.6164C40.5523 31.4885 40.9559 31.3606 41.4497 31.2061C41.1736 31.0676 40.993 30.977 40.7328 30.8491C41.0833 30.8118 41.3488 30.7852 41.6143 30.7532C42.4373 30.6573 43.2656 30.5667 44.0887 30.4601C44.2479 30.4388 44.4019 30.3535 44.5559 30.3003C44.5559 30.263 44.5506 30.2257 44.5506 30.183C44.4072 30.1297 44.2745 30.0445 44.1258 30.0178C43.4833 29.9059 42.8355 29.7354 42.1877 29.7301C40.5098 29.7088 38.8266 29.7407 37.1487 29.8047C36.1133 29.842 35.0832 29.9805 34.0478 30.0711C33.9204 30.0818 33.7876 30.0711 33.5965 30.0711C33.692 29.9539 33.7292 29.9006 33.7717 29.858C35.4708 28.366 37.3452 27.1457 39.4054 26.2292C40.7382 25.6377 42.0922 25.0995 43.4302 24.5187C43.9028 24.3162 44.3913 24.1137 44.9064 23.7301C44.5878 23.6768 44.3807 23.6235 44.1683 23.6075C43.34 23.5489 42.5382 23.6981 41.763 23.9645C40.2337 24.4814 38.7204 25.0462 37.1965 25.5897C36.9788 25.6697 36.7558 25.7336 36.4478 25.8295C36.6921 25.0995 36.9788 24.5027 37.4142 23.9805C37.8921 23.4157 38.5187 23.1226 39.2089 22.9361C40.0638 22.707 40.9081 22.4672 41.6249 21.9077C41.6833 21.8597 41.7629 21.8118 41.8373 21.8118C42.3842 21.7851 42.74 21.4441 43.0904 21.0871C43.701 20.4636 44.4338 20.048 45.2781 19.8508C45.7294 19.7443 46.1913 19.6856 46.6427 19.5951C47.0144 19.5258 47.025 19.4991 47.0887 19.0569C46.7754 18.9396 46.5843 18.9343 46.0851 19.1261C45.4161 19.3819 44.7524 19.6697 44.0833 19.9467C43.2709 20.2824 42.4585 20.6235 41.6408 20.9485C41.4868 21.0125 41.3116 21.0125 41.0886 21.0498C41.147 20.9059 41.1629 20.826 41.2054 20.762C41.4762 20.3624 41.747 19.9681 42.0231 19.5737C42.6391 18.7052 43.3453 17.9219 44.1789 17.2611C44.8745 16.7123 45.6497 16.2913 46.4303 15.8863C46.956 15.6146 47.471 15.3162 47.9861 15.0231C48.0232 15.0018 48.0551 14.9751 48.0869 14.9378C48.0869 14.9378 48.0923 14.9325 48.0976 14.9325C48.225 14.8313 48.294 14.7194 48.4055 14.5648C48.5754 14.3304 48.6179 14.2398 48.74 14C48.8993 14.3037 49.3454 14.3623 49.8498 14.7673C49.9348 14.8366 50.025 14.9059 50.1259 14.9592C50.3808 15.135 50.625 15.3162 50.8852 15.4814C52.4941 16.4831 54.2251 17.2505 55.9136 18.0977C56.8428 18.5666 57.7455 19.0888 58.6535 19.5951C58.7756 19.6643 58.9402 19.7283 58.9614 19.9414C57.4641 19.8455 55.9986 19.7496 54.5278 19.659C54.6339 19.7709 54.7508 19.8082 54.8729 19.8402C56.1366 20.1919 57.4004 20.5382 58.6588 20.9059C59.7473 21.2256 60.8358 21.5507 61.8606 22.0675C62.0677 22.1688 62.2482 22.3286 62.5243 22.5151C62.2907 22.6324 62.1686 22.7443 62.0252 22.7656C61.5845 22.8402 61.1438 22.9095 60.6978 22.9361C59.8694 22.9894 59.0358 23.0054 58.2075 23.048C58.0163 23.0587 57.8251 23.1226 57.5384 23.1812C57.7243 23.3304 57.8092 23.4263 57.9207 23.4796C58.3827 23.6981 58.834 23.9645 59.3225 24.0977C60.3101 24.3642 61.319 24.5453 62.3119 24.7798C63.2146 24.9929 64.1173 25.2061 65.0093 25.4512C65.3704 25.5471 65.7155 25.7176 66.066 26.0214C65.8642 26.0214 65.7421 26.0374 65.6253 26.016C65.2164 25.9468 64.8076 25.8668 64.3987 25.7922C63.5332 25.6271 62.673 25.4512 61.8075 25.2913C61.6164 25.254 61.3933 25.1741 61.2341 25.4885C63.3898 26.3731 65.2483 27.6946 67.0271 29.3091C66.751 29.3944 66.5545 29.453 66.3633 29.5169C66.0925 29.6075 65.8164 29.6875 65.5509 29.7994C65.381 29.8686 65.3598 30.0178 65.4819 30.151C65.5616 30.247 65.6678 30.3269 65.7793 30.3855C66.3155 30.6733 66.8518 30.961 67.3934 31.2328C68.1103 31.5898 68.843 31.9148 69.5492 32.2932C69.8678 32.4637 70.1545 32.7088 70.4253 32.9539C70.505 33.0285 70.5315 33.2257 70.4997 33.3429C70.4838 33.4015 70.2926 33.4495 70.1811 33.4495C69.5758 33.4388 68.9651 33.3962 68.3598 33.3909C67.2872 33.3802 66.2094 33.3855 65.1368 33.3909C64.9934 33.3909 64.8394 33.3802 64.712 33.4335C64.2394 33.6253 63.7775 33.8438 63.2093 34.0996C64.712 34.6164 66.1297 35.0587 67.5103 35.5916C68.9014 36.1244 70.3776 36.2896 71.8431 36.6147C71.7475 36.9504 71.6307 37.2221 71.5935 37.4992C71.5404 37.8829 71.3174 38.0214 70.9669 38.096C69.1988 38.4744 67.4359 38.8687 65.6731 39.2577C65.5775 39.279 65.4819 39.3216 65.3067 39.3749C66.0501 39.4228 66.6979 39.4548 67.351 39.5134C68.4289 39.6094 69.5121 39.6946 70.59 39.8332C72.1457 40.0356 73.4254 40.7816 74.4661 41.9486C75.7458 43.382 76.5157 45.0765 77.0148 46.9096C77.0839 47.1653 77.1104 47.4318 77.1741 47.7675C76.6909 47.7462 76.2768 47.7462 75.8679 47.7035C74.4714 47.5597 73.0749 47.3838 71.6785 47.2559C70.9669 47.192 70.2448 47.1973 69.5227 47.1813C69.3156 47.176 69.1085 47.208 68.9651 47.4105C69.0342 47.6716 69.2572 47.7835 69.4483 47.922C69.9846 48.327 70.6165 48.4016 71.2537 48.4922C72.3316 48.6467 73.4095 48.7746 74.4714 48.9931C76.0909 49.3234 77.2909 50.2932 78.2786 51.6733C77.8538 52.0996 77.4449 52.5206 77.0201 52.9362C76.4307 53.5171 75.7299 53.7835 74.8909 53.7249C73.4679 53.6236 72.0926 53.9114 70.7333 54.3217C70.6218 54.3536 70.5209 54.4069 70.3298 54.4922C70.6643 54.6201 70.8979 54.716 71.1369 54.8012C72.4749 55.2808 73.8289 55.7338 75.1617 56.24C76.0856 56.5917 76.9936 57.002 77.8909 57.4229C78.2202 57.5775 78.5228 57.8066 78.7989 58.0464C79.0963 58.2169 79.0485 58.462 78.7564 58.6219ZM42.8674 43.0516C43.2975 43.0836 43.7276 43.1369 44.1577 43.1262C44.6356 43.1156 45.1134 43.0783 45.5807 42.9877C46.0214 42.8971 46.0692 42.6733 45.7559 42.3536C45.2727 41.8634 44.694 41.5383 44.0356 41.3518C43.1382 41.1014 42.2143 41.0268 41.2904 40.9788C40.6213 40.9468 39.947 41.0268 39.3151 41.2666C38.6567 41.517 38.4443 41.9433 38.6142 42.6573C38.7523 42.684 38.9063 42.7319 39.0603 42.7479C40.324 42.8545 41.5983 42.9504 42.8674 43.0516ZM53.5136 52.9895C53.2109 52.7178 52.9083 52.6591 52.6109 52.6325C51.6286 52.5313 50.641 52.3821 49.6533 52.3714C47.5082 52.3501 45.3683 52.4034 43.2231 52.4194C41.5293 52.4353 39.8408 52.5366 38.1523 52.7124C37.0425 52.8297 35.9328 52.9629 34.8283 53.1334C34.2655 53.224 33.7133 53.4105 33.161 53.5703C33.0602 53.597 32.9805 53.6982 32.8318 53.8101C33.331 54.0073 33.7611 54.0286 34.1858 54.0393C35.354 54.0552 36.5222 54.0552 37.6903 54.0393C38.4231 54.0339 39.1611 53.986 39.8939 53.97C41.2691 53.938 42.6391 53.906 44.0143 53.8847C44.301 53.8794 44.5984 53.906 44.8639 54.0925C44.7046 54.1778 44.54 54.2311 44.3754 54.2631C44.0621 54.3217 43.7488 54.3803 43.4302 54.4123C42.0178 54.5615 40.6054 54.7 39.193 54.8385C38.4443 54.9131 37.6956 54.9664 36.9523 55.0464C36.7399 55.0677 36.5328 55.1636 36.3045 55.2329C36.3629 55.3661 36.4 55.4513 36.4319 55.5313C36.4266 55.5313 36.4266 55.5313 36.4213 55.5313L36.4372 55.5473C36.4372 55.5366 36.4372 55.5313 36.4372 55.5259C36.6602 55.5846 36.8885 55.6485 37.1169 55.7018C38.8319 56.1281 40.5895 56.2453 42.3417 56.3412C44.163 56.4425 45.9843 56.4052 47.8002 56.1654C48.6126 56.0588 49.4038 55.883 50.1684 55.5739C50.3755 55.4886 50.5932 55.4034 50.7472 55.1796C50.3967 55.1263 50.0887 55.1156 49.802 55.025C49.133 54.8172 48.4958 54.4922 47.763 54.4975C47.8905 54.4229 48.0126 54.3803 48.1347 54.3536C48.979 54.1831 49.8286 54.0339 50.6728 53.8421C51.4534 53.6663 52.2233 53.4638 52.9985 53.2506C53.1578 53.2133 53.3065 53.0961 53.5136 52.9895ZM73.9882 59.938C74.0413 59.6876 73.7811 59.5597 73.6006 59.4425C72.8413 58.9576 72.0342 58.5473 71.1687 58.3181C68.482 57.6041 65.7368 57.3217 62.742 57.2258C62.2482 57.2577 61.5314 57.2844 60.8146 57.359C60.2411 57.4176 59.6783 57.5455 59.1738 57.8599C58.8606 58.0517 58.7013 58.3235 58.7172 58.7018C58.7278 58.9256 58.7968 59.0482 59.0517 59.0695C59.7048 59.1228 60.3526 59.208 61.0057 59.2826C61.9403 59.3839 62.8801 59.4851 63.8146 59.5864C65.2748 59.7462 66.735 59.9114 68.1952 60.0553C69.0979 60.1405 70.0112 60.2151 70.9192 60.2471C71.7475 60.2791 72.5758 60.2578 73.4042 60.2471C73.6378 60.2364 73.9298 60.2151 73.9882 59.938ZM24.06 49.7657C26.2848 49.7284 28.5043 49.6751 30.7292 49.6378C30.9734 49.6325 31.1115 49.5419 31.1964 49.3128C31.3238 48.9664 31.2654 48.668 30.9097 48.5081C30.5061 48.327 30.0707 48.1938 29.6353 48.1192C28.4725 47.922 27.3096 48.0179 26.1468 48.1192C25.1007 48.2151 24.0972 48.4602 23.1733 48.9771C22.9821 49.0836 22.7644 49.1689 22.6901 49.478C22.8494 49.5419 22.9981 49.6325 23.1627 49.6591C23.4547 49.7177 23.7574 49.771 24.06 49.7657Z" fill="#FEFBFC"/>
</svg>
