<svg width="100" height="100" viewBox="0 0 100 100" fill="none" xmlns="http://www.w3.org/2000/svg">
<path d="M42 67C48.0751 67 53 62.0751 53 56C53 49.9249 48.0751 45 42 45C35.9249 45 31 49.9249 31 56C31 62.0751 35.9249 67 42 67Z" stroke="#FEFBFC" stroke-width="4" stroke-linecap="round" stroke-linejoin="round"/>
<path d="M24.3527 77.9996C25.9151 74.7082 28.3791 71.9276 31.4585 69.9805C34.538 68.0335 38.1066 67 41.75 67C45.3934 67 48.962 68.0335 52.0415 69.9805C55.1209 71.9276 57.5849 74.7082 59.1473 77.9996L80.2499 78C80.6111 78 80.9687 77.9289 81.3023 77.7907C81.636 77.6525 81.9392 77.4499 82.1945 77.1946C82.4499 76.9392 82.6525 76.636 82.7907 76.3024C82.9289 75.9687 83 75.6111 83 75.25V25.75C83 25.0207 82.7103 24.3212 82.1945 23.8055C81.6788 23.2897 80.9793 23 80.25 23H19.75C19.0207 23 18.3212 23.2897 17.8055 23.8055C17.2897 24.3212 17 25.0207 17 25.75V75.2503C17 75.6114 17.0711 75.969 17.2093 76.3026C17.3475 76.6362 17.5501 76.9394 17.8055 77.1947C18.0608 77.45 18.364 77.6526 18.6976 77.7908C19.0313 77.9289 19.3889 78 19.75 78L24.3527 77.9996Z" stroke="#FEFBFC" stroke-width="4" stroke-linecap="round" stroke-linejoin="round"/>
<path d="M66.5 67H72V34H28V39.5" stroke="#FEFBFC" stroke-width="4" stroke-linecap="round" stroke-linejoin="round"/>
</svg>
