<svg width="100" height="100" viewBox="0 0 100 100" fill="none" xmlns="http://www.w3.org/2000/svg">
<path d="M50 33V50" stroke="#FEFBFC" stroke-width="4" stroke-linecap="round" stroke-linejoin="round"/>
<path d="M65 58L50 50" stroke="#FEFBFC" stroke-width="4" stroke-linecap="round" stroke-linejoin="round"/>
<path d="M30 40H16V26" stroke="#FEFBFC" stroke-width="4" stroke-linecap="round" stroke-linejoin="round"/>
<path d="M27.9792 71.9203C32.3229 76.2557 37.857 79.2082 43.8819 80.4043C49.9067 81.6005 56.1516 80.9866 61.8269 78.6403C67.5021 76.2939 72.3528 72.3206 75.7656 67.2227C79.1784 62.1248 81 56.1312 81 50C81 43.8688 79.1784 37.8753 75.7656 32.7773C72.3528 27.6794 67.5021 23.7061 61.8269 21.3597C56.1516 19.0134 49.9067 18.3995 43.8819 19.5957C37.857 20.7918 32.3229 23.7443 27.9792 28.0797L16 40.0362" stroke="#FEFBFC" stroke-width="4" stroke-linecap="round" stroke-linejoin="round"/>
</svg>
