<svg width="100" height="100" viewBox="0 0 100 100" fill="none" xmlns="http://www.w3.org/2000/svg">
<path d="M74 17H26C21.0294 17 17 21.0294 17 26V74C17 78.9706 21.0294 83 26 83H74C78.9706 83 83 78.9706 83 74V26C83 21.0294 78.9706 17 74 17Z" stroke="#FEFBFC" stroke-width="4" stroke-linecap="round" stroke-linejoin="round"/>
<path d="M36.5 41C38.9853 41 41 38.9853 41 36.5C41 34.0147 38.9853 32 36.5 32C34.0147 32 32 34.0147 32 36.5C32 38.9853 34.0147 41 36.5 41Z" fill="#FEFBFC"/>
<path d="M63.5 41C65.9853 41 68 38.9853 68 36.5C68 34.0147 65.9853 32 63.5 32C61.0147 32 59 34.0147 59 36.5C59 38.9853 61.0147 41 63.5 41Z" fill="#FEFBFC"/>
<path d="M36.5 68C38.9853 68 41 65.9853 41 63.5C41 61.0147 38.9853 59 36.5 59C34.0147 59 32 61.0147 32 63.5C32 65.9853 34.0147 68 36.5 68Z" fill="#FEFBFC"/>
<path d="M49.5 54C51.9853 54 54 51.9853 54 49.5C54 47.0147 51.9853 45 49.5 45C47.0147 45 45 47.0147 45 49.5C45 51.9853 47.0147 54 49.5 54Z" fill="#FEFBFC"/>
<path d="M63.5 68C65.9853 68 68 65.9853 68 63.5C68 61.0147 65.9853 59 63.5 59C61.0147 59 59 61.0147 59 63.5C59 65.9853 61.0147 68 63.5 68Z" fill="#FEFBFC"/>
</svg>
