<svg width="100" height="100" viewBox="0 0 100 100" fill="none" xmlns="http://www.w3.org/2000/svg">
<path d="M50 63C57.1797 63 63 57.1797 63 50C63 42.8203 57.1797 37 50 37C42.8203 37 37 42.8203 37 50C37 57.1797 42.8203 63 50 63Z" stroke="#FEFBFC" stroke-width="4" stroke-linecap="round" stroke-linejoin="round"/>
<path d="M68.248 77.4956C62.122 81.5612 54.8137 83.4647 47.4828 82.9038C40.1519 82.343 33.2182 79.35 27.7819 74.3998C22.3456 69.4497 18.7182 62.8258 17.4751 55.5793C16.232 48.3327 17.4446 40.8786 20.9203 34.3997C24.3961 27.9208 29.9359 22.7881 36.6608 19.8162C43.3858 16.8442 50.9106 16.2032 58.0413 17.9948C65.1721 19.7863 71.5003 23.908 76.0219 29.7056C80.5434 35.5033 82.9994 42.6448 83 49.9972C83 57.5905 80.2502 63.746 73.3758 63.746C66.5014 63.746 63.7516 57.5905 63.7516 49.9972V36.2484" stroke="#FEFBFC" stroke-width="4" stroke-linecap="round" stroke-linejoin="round"/>
</svg>
