<svg width="100" height="100" viewBox="0 0 100 100" fill="none" xmlns="http://www.w3.org/2000/svg">
<path d="M50 43V82" stroke="#FEFBFC" stroke-width="4" stroke-linecap="round" stroke-linejoin="round"/>
<path d="M50 18V28" stroke="#FEFBFC" stroke-width="4" stroke-linecap="round" stroke-linejoin="round"/>
<path d="M50 43C53.866 43 57 39.6421 57 35.5C57 31.3579 53.866 28 50 28C46.134 28 43 31.3579 43 35.5C43 39.6421 46.134 43 50 43Z" stroke="#FEFBFC" stroke-width="4" stroke-linecap="round" stroke-linejoin="round"/>
<path d="M76 72V82" stroke="#FEFBFC" stroke-width="4" stroke-linecap="round" stroke-linejoin="round"/>
<path d="M76 18V57" stroke="#FEFBFC" stroke-width="4" stroke-linecap="round" stroke-linejoin="round"/>
<path d="M76 72C79.866 72 83 68.6421 83 64.5C83 60.3579 79.866 57 76 57C72.134 57 69 60.3579 69 64.5C69 68.6421 72.134 72 76 72Z" stroke="#FEFBFC" stroke-width="4" stroke-linecap="round" stroke-linejoin="round"/>
<path d="M24 60V82" stroke="#FEFBFC" stroke-width="4" stroke-linecap="round" stroke-linejoin="round"/>
<path d="M24 18V46" stroke="#FEFBFC" stroke-width="4" stroke-linecap="round" stroke-linejoin="round"/>
<path d="M24 60C27.866 60 31 56.866 31 53C31 49.134 27.866 46 24 46C20.134 46 17 49.134 17 53C17 56.866 20.134 60 24 60Z" stroke="#FEFBFC" stroke-width="4" stroke-linecap="round" stroke-linejoin="round"/>
</svg>
