<svg width="100" height="100" viewBox="0 0 100 100" fill="none" xmlns="http://www.w3.org/2000/svg">
<path d="M34.4166 70.6206C34.4166 73.6641 35.9136 76.5828 38.5782 78.7349C41.2427 80.8869 44.8567 82.0959 48.625 82.0959C52.3932 82.0959 56.0072 80.8869 58.6718 78.7349C61.3363 76.5828 62.8333 73.6641 62.8333 70.6206C62.8333 59.1454 48.625 52.2603 48.625 52.2603C48.625 52.2603 34.4166 59.1454 34.4166 70.6206Z" stroke="#FEFBFC" stroke-width="4" stroke-linecap="round" stroke-linejoin="round"/>
<path d="M31.6784 31.9568C26.6243 39.445 22.5 47.9985 22.5 55.973C22.5 63.141 25.3973 70.0154 30.5546 75.084C35.7118 80.1525 42.7065 83 50 83C57.2935 83 64.2882 80.1525 69.4454 75.084C74.6027 70.0154 77.5 63.141 77.5 55.973C77.5 39.2421 65.7143 26.3721 56.1625 17L56.1622 17.0003L44.7619 40.5291L31.6788 31.957L31.6784 31.9568Z" stroke="#FEFBFC" stroke-width="4" stroke-linecap="round" stroke-linejoin="round"/>
</svg>
