<svg width="100" height="100" viewBox="0 0 100 100" fill="none" xmlns="http://www.w3.org/2000/svg">
<path d="M80.25 33H19.75C18.2312 33 17 34.2685 17 35.8333V47.1667C17 48.7315 18.2312 50 19.75 50H80.25C81.7688 50 83 48.7315 83 47.1667V35.8333C83 34.2685 81.7688 33 80.25 33Z" stroke="#FEFBFC" stroke-width="4" stroke-linecap="round" stroke-linejoin="round"/>
<path d="M77 50V74.3C77 75.0161 76.7155 75.7028 76.2092 76.2092C75.7028 76.7155 75.0161 77 74.3 77H25.7C24.9839 77 24.2972 76.7155 23.7908 76.2092C23.2845 75.7028 23 75.0161 23 74.3V50" stroke="#FEFBFC" stroke-width="4" stroke-linecap="round" stroke-linejoin="round"/>
<path d="M50 33V77" stroke="#FEFBFC" stroke-width="4" stroke-linecap="round" stroke-linejoin="round"/>
<path d="M65.5828 29.1043C61.6871 33 50 33 50 33C50 33 50 21.3129 53.8957 17.4172C55.4458 15.8688 57.5474 14.9994 59.7383 15C61.9293 15.0006 64.0303 15.8713 65.5795 17.4205C67.1288 18.9697 67.9994 21.0708 68 23.2617C68.0006 25.4526 67.1312 27.5542 65.5828 29.1043V29.1043Z" stroke="#FEFBFC" stroke-width="4" stroke-linecap="round" stroke-linejoin="round"/>
<path d="M34.4172 29.1043C38.3129 33 50 33 50 33C50 33 50 21.3129 46.1043 17.4172C44.5542 15.8688 42.4526 14.9994 40.2617 15C38.0708 15.0006 35.9697 15.8713 34.4205 17.4205C32.8713 18.9697 32.0006 21.0708 32 23.2617C31.9994 25.4526 32.8688 27.5542 34.4172 29.1043V29.1043Z" stroke="#FEFBFC" stroke-width="4" stroke-linecap="round" stroke-linejoin="round"/>
</svg>
