<svg width="100" height="100" viewBox="0 0 100 100" fill="none" xmlns="http://www.w3.org/2000/svg">
<path d="M50 43.9122V28.0328C50 26.413 50.6321 24.8596 51.7574 23.7142C52.8826 22.5688 54.4087 21.9254 56 21.9254C57.5913 21.9254 59.1174 22.5688 60.2426 23.7142C61.3679 24.8596 62 26.413 62 28.0328V52.4627" stroke="#FEFBFC" stroke-width="4" stroke-linecap="round" stroke-linejoin="round"/>
<path d="M38 46.5522V23.1567C38 21.5239 38.6321 19.9579 39.7574 18.8033C40.8826 17.6487 42.4087 17 44 17C45.5913 17 47.1174 17.6487 48.2426 18.8033C49.3679 19.9579 50 21.5239 50 23.1567V44.0896" stroke="#FEFBFC" stroke-width="4" stroke-linecap="round" stroke-linejoin="round"/>
<path d="M50 64.5299C50 61.2642 51.2643 58.1322 53.5147 55.823C55.7652 53.5137 58.8174 52.5 62 52.5V46.0597C62 44.0896 62.3148 42.8609 63.44 41.7063C64.5652 40.5517 66.4087 39.903 68 39.903C69.5913 39.903 70.9548 40.4723 72.08 41.6269C73.2052 42.7815 74 44.0896 74 46.0597V58.3732C74 64.9046 71.4714 71.1686 66.9706 75.787C62.4697 80.4054 56.3652 83 50 83C43.6348 83 37.5303 80.4054 33.0294 75.787C28.5286 71.1686 26 64.9046 26 58.3732V34.9776C26 33.3448 26.6321 31.7788 27.7574 30.6242C28.8826 29.4696 30.4087 28.8209 32 28.8209C33.5913 28.8209 35.1174 29.4696 36.2426 30.6242C37.3679 31.7788 38 33.3448 38 34.9776V46.0597" stroke="#FEFBFC" stroke-width="4" stroke-linecap="round" stroke-linejoin="round"/>
</svg>
