<svg width="100" height="100" viewBox="0 0 100 100" fill="none" xmlns="http://www.w3.org/2000/svg">
<path d="M50 82C50 82 17 63.5455 17 41.1364C17.0007 37.1757 18.375 33.3375 20.8892 30.2743C23.4034 27.2111 26.9024 25.1121 30.7913 24.334C34.6802 23.5559 38.7189 24.1469 42.2208 26.0064C45.7226 27.8659 48.4715 30.8792 50 34.5339L50 34.534C51.5285 30.8792 54.2774 27.8659 57.7792 26.0064C61.2811 24.1469 65.3198 23.5559 69.2087 24.334C73.0975 25.1121 76.5966 27.2111 79.1108 30.2743C81.625 33.3375 82.9993 37.1757 83 41.1364C83 63.5455 50 82 50 82Z" stroke="#A00A34" stroke-width="4" stroke-linecap="round" stroke-linejoin="round"/>
</svg>
