<svg width="100" height="100" viewBox="0 0 100 100" fill="none" xmlns="http://www.w3.org/2000/svg">
<path d="M50 50L30.075 34.5836C29.7412 34.3236 29.4703 33.9865 29.2837 33.5989C29.0971 33.2114 29 32.784 29 32.3507V19.791C29 19.0508 29.2831 18.3409 29.7872 17.8175C30.2912 17.2941 30.9747 17 31.6875 17H69.3125C70.0253 17 70.7088 17.2941 71.2129 17.8175C71.7169 18.3409 72 19.0508 72 19.791V32.2256C72 32.6571 71.9037 33.0827 71.7185 33.4691C71.5334 33.8554 71.2646 34.1919 70.9331 34.4521L50 50Z" stroke="#FEFBFC" stroke-width="4" stroke-linecap="round" stroke-linejoin="round"/>
<path d="M50 50L30.075 65.9336C29.7412 66.1859 29.4703 66.5131 29.2837 66.8893C29.0971 67.2654 29 67.6802 29 68.1008V80.2911C29 81.0095 29.2831 81.6986 29.7872 82.2066C30.2912 82.7146 30.9747 83 31.6875 83H69.3125C70.0253 83 70.7088 82.7146 71.2129 82.2066C71.7169 81.6986 72 81.0095 72 80.2911V68.2223C72 67.8034 71.9037 67.3903 71.7185 67.0153C71.5334 66.6404 71.2646 66.3138 70.9331 66.0612L50 50Z" stroke="#FEFBFC" stroke-width="4" stroke-linecap="round" stroke-linejoin="round"/>
</svg>
