<svg width="100" height="100" viewBox="0 0 100 100" fill="none" xmlns="http://www.w3.org/2000/svg">
<path d="M58.1798 76.0837V58.5994C58.1798 57.8266 57.8925 57.0854 57.381 56.5389C56.8696 55.9925 56.1759 55.6854 55.4525 55.6854H44.5435C43.8201 55.6854 43.1264 55.9925 42.615 56.5389C42.1035 57.0854 41.8162 57.8266 41.8162 58.5994V76.0837C41.8162 76.8565 41.5289 77.5976 41.0175 78.1441C40.5061 78.6905 39.8125 78.9976 39.0893 78.9977L22.7276 79C22.3694 79 22.0148 78.9247 21.6838 78.7783C21.3529 78.6319 21.0522 78.4172 20.7989 78.1466C20.5456 77.876 20.3447 77.5548 20.2076 77.2012C20.0706 76.8477 20 76.4687 20 76.086V42.4075C20 42.0015 20.0794 41.6 20.2331 41.2287C20.3868 40.8575 20.6114 40.5246 20.8925 40.2515L48.1634 13.758C48.6654 13.2703 49.3195 13 49.998 13C50.6765 13 51.3307 13.2702 51.8327 13.7578L79.1073 40.2515C79.3885 40.5246 79.6131 40.8575 79.7669 41.2288C79.9206 41.6001 80 42.0016 80 42.4076V76.086C80 76.4687 79.9294 76.8477 79.7924 77.2012C79.6553 77.5548 79.4544 77.876 79.2011 78.1466C78.9478 78.4172 78.6471 78.6319 78.3162 78.7783C77.9852 78.9247 77.6306 79 77.2724 79L60.9068 78.9977C60.1835 78.9976 59.4899 78.6906 58.9785 78.1441C58.4671 77.5976 58.1798 76.8565 58.1798 76.0837V76.0837Z" stroke="#FEFBFC" stroke-width="4" stroke-linecap="round" stroke-linejoin="round"/>
</svg>
