<svg width="100" height="100" viewBox="0 0 100 100" fill="none" xmlns="http://www.w3.org/2000/svg">
<path d="M80.25 23H19.75C18.2312 23 17 24.2312 17 25.75V75.25C17 76.7688 18.2312 78 19.75 78H80.25C81.7688 78 83 76.7688 83 75.25V25.75C83 24.2312 81.7688 23 80.25 23Z" stroke="#FEFBFC" stroke-width="4" stroke-linecap="round" stroke-linejoin="round"/>
<path d="M17 63.6422L34.3054 46.7846C34.5608 46.5359 34.8639 46.3385 35.1976 46.2039C35.5312 46.0693 35.8888 46 36.25 46C36.6111 46 36.9687 46.0693 37.3023 46.2039C37.636 46.3385 37.9392 46.5359 38.1945 46.7846L53.5554 61.7481C53.8108 61.9968 54.114 62.1941 54.4476 62.3288C54.7813 62.4634 55.1388 62.5327 55.5 62.5327C55.8611 62.5327 56.2187 62.4634 56.5524 62.3288C56.886 62.1941 57.1892 61.9968 57.4445 61.7481L64.5555 54.8211C64.8108 54.5724 65.114 54.3751 65.4476 54.2404C65.7813 54.1058 66.1389 54.0365 66.5 54.0365C66.8611 54.0365 67.2187 54.1058 67.5524 54.2404C67.886 54.3751 68.1892 54.5724 68.4445 54.8211L83 69" stroke="#FEFBFC" stroke-width="4" stroke-linecap="round" stroke-linejoin="round"/>
<path d="M60 45C62.2091 45 64 42.9853 64 40.5C64 38.0147 62.2091 36 60 36C57.7909 36 56 38.0147 56 40.5C56 42.9853 57.7909 45 60 45Z" fill="#FEFBFC"/>
</svg>
