<svg width="100" height="100" viewBox="0 0 100 100" fill="none" xmlns="http://www.w3.org/2000/svg">
<path d="M55.8665 38.6829L72.845 55.7734C72.845 55.7734 49.9993 86.4352 17 78.7697L72.1653 21.8723C72.7545 21.2788 73.4541 20.808 74.2241 20.4868C74.9942 20.1655 75.8195 20.0001 76.653 20C77.4866 19.9999 78.312 20.165 79.0821 20.4861C79.8522 20.8071 80.5519 21.2777 81.1413 21.871C81.7307 22.4642 82.1982 23.1686 82.5171 23.9438C82.836 24.719 83.0001 25.5498 83 26.3888C82.9999 27.2278 82.8356 28.0586 82.5164 28.8337C82.1973 29.6088 81.7295 30.313 81.14 30.9061L65.1586 48.0401" stroke="#FEFBFC" stroke-width="4" stroke-linecap="round" stroke-linejoin="round"/>
</svg>
