<svg width="100" height="100" viewBox="0 0 100 100" fill="none" xmlns="http://www.w3.org/2000/svg">
<path d="M19.5714 42H35V76H19.5714C18.8894 76 18.2354 75.7245 17.7532 75.234C17.2709 74.7435 17 74.0783 17 73.3846V44.6154C17 43.9217 17.2709 43.2565 17.7532 42.766C18.2354 42.2755 18.8894 42 19.5714 42V42Z" stroke="#FEFBFC" stroke-width="4" stroke-linecap="round" stroke-linejoin="round"/>
<path d="M35 42.6522L47.8106 17C49.1565 17 50.4892 17.2654 51.7326 17.7811C52.976 18.2967 54.1058 19.0525 55.0574 20.0053C56.0091 20.9581 56.764 22.0893 57.279 23.3342C57.7941 24.5791 58.0591 25.9134 58.0591 27.2609V34.9565H77.8758C78.6023 34.9565 79.3206 35.1112 79.9829 35.4104C80.6452 35.7095 81.2364 36.1463 81.7173 36.6916C82.1981 37.237 82.5577 37.8785 82.772 38.5736C82.9863 39.2687 83.0506 40.0015 82.9604 40.7233L79.1172 71.5059C78.9623 72.7467 78.3601 73.8882 77.4238 74.7157C76.4875 75.5433 75.2815 76 74.0326 76H35" stroke="#FEFBFC" stroke-width="4" stroke-linecap="round" stroke-linejoin="round"/>
</svg>
