<svg width="100" height="100" viewBox="0 0 100 100" fill="none" xmlns="http://www.w3.org/2000/svg">
<path d="M50 56C53.3137 56 56 53.3137 56 50C56 46.6863 53.3137 44 50 44C46.6863 44 44 46.6863 44 50C44 53.3137 46.6863 56 50 56Z" fill="#FEFBFC"/>
<path d="M77 56C80.3137 56 83 53.3137 83 50C83 46.6863 80.3137 44 77 44C73.6863 44 71 46.6863 71 50C71 53.3137 73.6863 56 77 56Z" fill="#FEFBFC"/>
<path d="M23 56C26.3137 56 29 53.3137 29 50C29 46.6863 26.3137 44 23 44C19.6863 44 17 46.6863 17 50C17 53.3137 19.6863 56 23 56Z" fill="#FEFBFC"/>
</svg>
