<svg width="100" height="100" viewBox="0 0 100 100" fill="none" xmlns="http://www.w3.org/2000/svg">
<path d="M82 58.3953C76.2629 59.9895 70.2054 60.0315 64.4468 58.517C58.6882 57.0024 53.4352 53.9857 49.2247 49.7753C45.0143 45.5649 41.9976 40.3118 40.483 34.5532C38.9685 28.7946 39.0104 22.7371 40.6046 17L40.6055 17.0003C34.9469 18.5744 29.7996 21.6038 25.6762 25.7866C21.5528 29.9693 18.5974 35.1595 17.1043 40.84C15.6112 46.5205 15.6325 52.4931 17.1662 58.1628C18.6999 63.8325 21.6924 69.0014 25.8456 73.1546C29.9988 77.3077 35.1677 80.3002 40.8374 81.8338C46.5071 83.3675 52.4797 83.3888 58.1602 81.8956C63.8407 80.4025 69.0308 77.447 73.2136 73.3236C77.3963 69.2001 80.4256 64.0527 81.9997 58.3941L82 58.3953Z" stroke="#FEFBFC" stroke-width="4" stroke-linecap="round" stroke-linejoin="round"/>
</svg>
