<svg width="100" height="100" viewBox="0 0 100 100" fill="none" xmlns="http://www.w3.org/2000/svg">
<path d="M50.6667 18H18V81H81V48.3333" stroke="#FEFBFC" stroke-width="4" stroke-linecap="round" stroke-linejoin="round"/>
<path d="M36.1616 65.9649L52.692 62.1755L81.378 33.4877C81.7763 33.0895 82 32.5493 82 31.9861C82 31.4228 81.7763 30.8827 81.378 30.4844L69.5164 18.622C69.1181 18.2237 68.578 18 68.0148 18C67.4516 18 66.9115 18.2237 66.5132 18.622L37.8272 47.3098L34.0381 63.8412C34.0381 64.4045 33.8636 65.3362 34.2618 65.7345C34.6601 66.1327 35.5984 65.9649 36.1616 65.9649Z" stroke="#FEFBFC" stroke-width="4" stroke-linecap="round" stroke-linejoin="round"/>
<path d="M61 25L75 39" stroke="#FEFBFC" stroke-width="4" stroke-linecap="round" stroke-linejoin="round"/>
</svg>
