<svg width="100" height="100" viewBox="0 0 100 100" fill="none" xmlns="http://www.w3.org/2000/svg">
<path d="M35.8561 50.2349C38.838 56.331 43.7794 61.25 49.8891 64.204C50.3361 64.4159 50.8305 64.5076 51.3238 64.4703C51.817 64.433 52.2921 64.2679 52.7021 63.9912L61.6981 57.9925C62.096 57.7272 62.5537 57.5653 63.0299 57.5216C63.5061 57.4778 63.9857 57.5536 64.4253 57.7419L81.2551 64.9547C81.8268 65.1976 82.3041 65.6196 82.6151 66.1574C82.9261 66.6951 83.0539 67.3193 82.9792 67.9359C82.4473 72.0984 80.4164 75.9242 77.2668 78.6971C74.1171 81.47 70.0648 82.9998 65.8685 83C52.9077 83 40.4779 77.8514 31.3132 68.6868C22.1486 59.5221 17 47.0923 17 34.1315C17.0002 29.9352 18.53 25.8829 21.3029 22.7332C24.0758 19.5836 27.9016 17.5527 32.0641 17.0208C32.6807 16.9461 33.3049 17.0739 33.8426 17.3849C34.3803 17.6959 34.8024 18.1732 35.0453 18.7449L42.2643 35.5894C42.4511 36.0251 42.5272 36.5002 42.4858 36.9724C42.4445 37.4446 42.287 37.8993 42.0274 38.2959L36.0495 47.4299C35.7775 47.8408 35.6166 48.3152 35.5827 48.8069C35.5488 49.2985 35.643 49.7905 35.8561 50.2349Z" stroke="#FEFBFC" stroke-width="4" stroke-linecap="round" stroke-linejoin="round"/>
</svg>
