<svg width="100" height="100" viewBox="0 0 100 100" fill="none" xmlns="http://www.w3.org/2000/svg">
<path d="M37 63L23 76" stroke="#FEFBFC" stroke-width="4" stroke-linecap="round" stroke-linejoin="round"/>
<path d="M59.1025 16.7855L38.2237 37.6844C38.2237 37.6844 28.9323 33.0341 19.0009 41.0535C18.7076 41.2898 18.4673 41.5852 18.2956 41.9206C18.1238 42.256 18.0245 42.6237 18.004 43C17.9835 43.3763 18.0423 43.7527 18.1767 44.1048C18.311 44.4568 18.5179 44.7767 18.7838 45.0435L54.9183 81.2129C55.1889 81.4844 55.5146 81.6946 55.8734 81.8293C56.2322 81.964 56.6157 82.0201 56.9979 81.9936C57.3802 81.9672 57.7524 81.8589 58.0892 81.6761C58.4261 81.4933 58.7199 81.2403 58.9506 80.9341C61.7615 77.1944 66.1763 69.5074 62.3366 61.8204L83.2153 40.9216C83.7177 40.4186 84 39.7365 84 39.0252C84 38.314 83.7177 37.6319 83.2153 37.1289L62.8914 16.7855C62.389 16.2825 61.7075 16 60.997 16C60.2864 16 59.6049 16.2825 59.1025 16.7855V16.7855Z" stroke="#FEFBFC" stroke-width="4" stroke-linecap="round" stroke-linejoin="round"/>
</svg>
