<svg width="100" height="100" viewBox="0 0 100 100" fill="none" xmlns="http://www.w3.org/2000/svg">
<path d="M50 66C58.8366 66 66 58.8366 66 50C66 41.1634 58.8366 34 50 34C41.1634 34 34 41.1634 34 50C34 58.8366 41.1634 66 50 66Z" stroke="#FEFBFC" stroke-width="4" stroke-linecap="round" stroke-linejoin="round"/>
<path d="M48.3009 22.2211L42.0493 17.5338C41.7139 17.2815 41.3233 17.1124 40.9097 17.0407C40.4962 16.9689 40.0715 16.9965 39.6707 17.1211C37.7345 17.7274 35.856 18.5046 34.0575 19.4435C33.6851 19.6388 33.3646 19.9198 33.1223 20.2634C32.88 20.607 32.7229 21.0033 32.6639 21.4196L31.5588 29.1559C31.1375 29.5293 30.7251 29.9177 30.3215 30.3211C29.9181 30.7245 29.5296 31.137 29.1561 31.5586L29.1559 31.5588L21.4209 32.6649C21.0053 32.7237 20.6097 32.8803 20.2665 33.122C19.9233 33.3637 19.6425 33.6835 19.4472 34.055C18.5068 35.8529 17.7281 37.7307 17.1202 39.6664C16.9951 40.0678 16.9671 40.4931 17.0388 40.9074C17.1104 41.3217 17.2795 41.713 17.5321 42.0491L22.2211 48.3009C22.1873 48.8628 22.1703 49.4291 22.1701 49.9997C22.1701 50.5702 22.1871 51.1366 22.2211 51.6988L22.2211 51.6991L17.5338 57.9507C17.2815 58.2861 17.1124 58.6767 17.0407 59.0902C16.9689 59.5038 16.9965 59.9285 17.1211 60.3293C17.7274 62.2655 18.5046 64.144 19.4435 65.9425C19.6388 66.3148 19.9198 66.6354 20.2634 66.8777C20.607 67.12 21.0033 67.2771 21.4196 67.3361L29.1559 68.4412C29.5293 68.8625 29.9177 69.2749 30.3211 69.6785C30.7245 70.0819 31.137 70.4704 31.5586 70.8439L31.5588 70.8441L32.6649 78.579C32.7237 78.9947 32.8803 79.3903 33.122 79.7335C33.3637 80.0767 33.6835 80.3575 34.055 80.5528C35.8528 81.4932 37.7307 82.2719 39.6664 82.8798C40.0677 83.0049 40.4931 83.0329 40.9074 82.9612C41.3217 82.8896 41.713 82.7205 42.049 82.4679L48.3009 77.7789C48.8628 77.8127 49.4291 77.8297 49.9997 77.8299C50.5702 77.8299 51.1366 77.8129 51.6988 77.7789L51.6991 77.7789L57.9507 82.4662C58.2861 82.7185 58.6767 82.8875 59.0902 82.9593C59.5038 83.031 59.9285 83.0035 60.3293 82.8789C62.2655 82.2726 64.144 81.4954 65.9425 80.5565C66.3148 80.3612 66.6354 80.0801 66.8777 79.7366C67.12 79.393 67.2771 78.9967 67.3361 78.5804L68.4412 70.8441C68.8625 70.4707 69.2749 70.0823 69.6785 69.6789C70.0819 69.2755 70.4704 68.863 70.8439 68.4414L70.8441 68.4412L78.579 67.3351C78.9947 67.2763 79.3903 67.1197 79.7335 66.878C80.0767 66.6363 80.3575 66.3165 80.5528 65.945C81.4932 64.1471 82.2719 62.2693 82.8798 60.3336C83.0049 59.9323 83.0329 59.5069 82.9612 59.0926C82.8896 58.6783 82.7205 58.287 82.4679 57.951L77.7789 51.6991C77.8127 51.1372 77.8297 50.5709 77.8299 50.0003C77.8299 49.4298 77.8129 48.8634 77.7789 48.3012L77.7789 48.3009L82.4662 42.0493C82.7185 41.7139 82.8875 41.3233 82.9593 40.9097C83.031 40.4962 83.0035 40.0715 82.8789 39.6707C82.2726 37.7345 81.4954 35.856 80.5565 34.0575C80.3612 33.6851 80.0801 33.3646 79.7366 33.1223C79.393 32.88 78.9967 32.7229 78.5804 32.6639L70.8441 31.5588C70.4707 31.1375 70.0823 30.7251 69.6789 30.3215C69.2755 29.9181 68.863 29.5296 68.4414 29.1561L68.4412 29.1559L67.3351 21.4209C67.2763 21.0053 67.1197 20.6097 66.878 20.2665C66.6363 19.9233 66.3165 19.6425 65.945 19.4472C64.1471 18.5068 62.2693 17.7281 60.3336 17.1202C59.9323 16.9951 59.5069 16.9671 59.0926 17.0388C58.6783 17.1104 58.287 17.2795 57.951 17.5321L51.6991 22.2211C51.1372 22.1873 50.5709 22.1703 50.0003 22.1701C49.4298 22.1701 48.8634 22.1871 48.3011 22.2211L48.3009 22.2211Z" stroke="#FEFBFC" stroke-width="4" stroke-linecap="round" stroke-linejoin="round"/>
</svg>
