<svg width="100" height="100" viewBox="0 0 100 100" fill="none" xmlns="http://www.w3.org/2000/svg">
<path d="M28 60C33.5228 60 38 55.5228 38 50C38 44.4772 33.5228 40 28 40C22.4772 40 18 44.4772 18 50C18 55.5228 22.4772 60 28 60Z" stroke="#FEFBFC" stroke-width="4" stroke-linecap="round" stroke-linejoin="round"/>
<path d="M64 83C69.5228 83 74 78.5228 74 73C74 67.4772 69.5228 63 64 63C58.4772 63 54 67.4772 54 73C54 78.5228 58.4772 83 64 83Z" stroke="#FEFBFC" stroke-width="4" stroke-linecap="round" stroke-linejoin="round"/>
<path d="M64 37C69.5228 37 74 32.5228 74 27C74 21.4772 69.5228 17 64 17C58.4772 17 54 21.4772 54 27C54 32.5228 58.4772 37 64 37Z" stroke="#FEFBFC" stroke-width="4" stroke-linecap="round" stroke-linejoin="round"/>
<path d="M55 33L37 44" stroke="#FEFBFC" stroke-width="4" stroke-linecap="round" stroke-linejoin="round"/>
<path d="M37 56L55 67" stroke="#FEFBFC" stroke-width="4" stroke-linecap="round" stroke-linejoin="round"/>
</svg>
