<svg width="100" height="100" viewBox="0 0 100 100" fill="none" xmlns="http://www.w3.org/2000/svg">
<path d="M50 83C68.2254 83 83 68.2254 83 50C83 31.7746 68.2254 17 50 17C31.7746 17 17 31.7746 17 50C17 68.2254 31.7746 83 50 83Z" stroke="#FEFBFC" stroke-width="4" stroke-linecap="round" stroke-linejoin="round"/>
<path d="M64 58C62.58 60.4326 60.5389 62.4523 58.0815 63.8565C55.6242 65.2608 52.8371 66 50.0001 66C47.1631 66 44.376 65.2609 41.9186 63.8567C39.4612 62.4525 37.42 60.4328 36 58.0002" stroke="#FEFBFC" stroke-width="4" stroke-linecap="round" stroke-linejoin="round"/>
<path d="M39.5 47C41.9853 47 44 45.2091 44 43C44 40.7909 41.9853 39 39.5 39C37.0147 39 35 40.7909 35 43C35 45.2091 37.0147 47 39.5 47Z" fill="#FEFBFC"/>
<path d="M60.5 47C62.9853 47 65 45.2091 65 43C65 40.7909 62.9853 39 60.5 39C58.0147 39 56 40.7909 56 43C56 45.2091 58.0147 47 60.5 47Z" fill="#FEFBFC"/>
</svg>
