<svg width="100" height="100" viewBox="0 0 100 100" fill="none" xmlns="http://www.w3.org/2000/svg">
<path d="M71.5228 71.862L86 50L71.5228 28.138C71.291 27.7879 70.9769 27.5009 70.6085 27.3024C70.24 27.1039 69.8286 27 69.4107 27H22.5385C21.8652 27 21.2196 27.2692 20.7435 27.7485C20.2674 28.2278 20 28.8778 20 29.5556V70.4444C20 71.1222 20.2674 71.7722 20.7435 72.2515C21.2196 72.7308 21.8652 73 22.5385 73H69.4107C69.8286 73 70.24 72.8961 70.6085 72.6976C70.9769 72.4991 71.291 72.2121 71.5228 71.862V71.862Z" stroke="#FEFBFC" stroke-width="4" stroke-linecap="round" stroke-linejoin="round"/>
<circle cx="70" cy="50" r="3" fill="#FEFBFC"/>
</svg>
