<svg width="100" height="100" viewBox="0 0 100 100" fill="none" xmlns="http://www.w3.org/2000/svg">
<g clip-path="url(#clip0_1936_2698)">
<path d="M83 59.0112V78.0112H17V59.0112M83 59.0112V35.0112M83 59.0112H69.5M17 59.0112V35.0112M17 59.0112H34.5" stroke="#FEFBFC" stroke-width="4" stroke-linecap="round" stroke-linejoin="round"/>
<path d="M17 42.0112L83 42.0112" stroke="#FEFBFC" stroke-width="8" stroke-linejoin="round"/>
<path d="M62.8004 17.9209L60.445 25.294L62.7918 28.2345L66.4087 27.1992L68.7642 19.8262C70.0993 20.9369 71.0552 22.4357 71.4983 24.1149C71.9413 25.7942 71.8498 27.5698 71.2365 29.1945C70.6232 30.8193 69.5186 32.2125 68.0764 33.1801C66.6342 34.1477 64.9262 34.6415 63.1902 34.5929L51.9691 72.3975C51.7161 73.1879 51.1596 73.8455 50.4219 74.2257C49.6842 74.6059 48.8257 74.6776 48.0351 74.4251C47.2446 74.1725 46.5867 73.6164 46.2061 72.8789C45.8254 72.1414 45.7533 71.283 46.0054 70.4923L58.7808 33.1841C57.3382 32.2171 56.2327 30.8247 55.6187 29.2002C55.0046 27.5757 54.9122 25.8001 55.3545 24.1207C55.7968 22.4413 56.7517 20.9415 58.0862 19.8302C59.4208 18.7189 61.0687 18.0519 62.8004 17.9209Z" fill="#FEFBFC"/>
<path d="M21.8044 21.6026L23.699 20.0684L26.7026 21.8406L27.1262 24.3005L47.7579 48.8101L49.8226 47.1382C50.2518 46.7906 50.8815 46.8568 51.2291 47.286L52.3133 48.6249L50.8924 49.7756L65.8722 64.4002C67.243 66.0931 69.0374 70.2459 65.2483 73.3144C61.4591 76.3828 57.7701 73.7641 56.3992 72.0713L45.2086 54.3782L43.7877 55.5288L42.7034 54.1899C42.3559 53.7607 42.4221 53.131 42.8513 52.7834L44.916 51.1114L25.2316 25.8348L22.9134 24.909L21.8044 21.6026Z" fill="#FEFBFC"/>
</g>
<defs>
<clipPath id="clip0_1936_2698">
<rect width="100" height="100" fill="white"/>
</clipPath>
</defs>
</svg>
