<svg width="100" height="100" viewBox="0 0 100 100" fill="none" xmlns="http://www.w3.org/2000/svg">
<path d="M62 41H83" stroke="#FEFBFC" stroke-width="4" stroke-linecap="round" stroke-linejoin="round"/>
<path d="M62 56H83" stroke="#FEFBFC" stroke-width="4" stroke-linecap="round" stroke-linejoin="round"/>
<path d="M33.5 56C40.4036 56 46 50.8513 46 44.5C46 38.1487 40.4036 33 33.5 33C26.5964 33 21 38.1487 21 44.5C21 50.8513 26.5964 56 33.5 56Z" stroke="#FEFBFC" stroke-width="4" stroke-linecap="round" stroke-linejoin="round"/>
<path d="M17 67C17.888 63.8516 19.8922 61.0627 22.6978 59.0717C25.5033 57.0806 28.9512 56.0001 32.4996 56C36.048 55.9999 39.4959 57.0801 42.3016 59.071C45.1073 61.0619 47.1117 63.8507 48 66.999" stroke="#FEFBFC" stroke-width="4" stroke-linecap="round" stroke-linejoin="round"/>
</svg>
