<svg width="100" height="100" viewBox="0 0 100 100" fill="none" xmlns="http://www.w3.org/2000/svg">
<path d="M50 83C68.2254 83 83 68.2254 83 50C83 31.7746 68.2254 17 50 17C31.7746 17 17 31.7746 17 50C17 68.2254 31.7746 83 50 83Z" stroke="#FEFBFC" stroke-width="4" stroke-miterlimit="10"/>
<path d="M50 61C57.732 61 64 54.732 64 47C64 39.268 57.732 33 50 33C42.268 33 36 39.268 36 47C36 54.732 42.268 61 50 61Z" stroke="#FEFBFC" stroke-width="4" stroke-miterlimit="10"/>
<path d="M28 75C30.065 70.7873 33.2132 67.2497 37.096 64.7788C40.9789 62.3079 45.445 61 50 61C54.5549 61 59.021 62.3078 62.9039 64.7787C66.7868 67.2496 69.935 70.7872 72 74.9999" stroke="#FEFBFC" stroke-width="4" stroke-linecap="round" stroke-linejoin="round"/>
</svg>
