<svg width="100" height="100" viewBox="0 0 100 100" fill="none" xmlns="http://www.w3.org/2000/svg">
<path d="M40 64C50.4934 64 59 55.2696 59 44.5C59 33.7304 50.4934 25 40 25C29.5066 25 21 33.7304 21 44.5C21 55.2696 29.5066 64 40 64Z" stroke="#FEFBFC" stroke-width="4" stroke-miterlimit="10"/>
<path d="M13 76C15.9326 72.2931 19.8258 69.2677 24.351 67.1791C28.8761 65.0906 33.9004 64.0002 38.9995 64C44.0986 63.9998 49.1229 65.0899 53.6482 67.1782C58.1736 69.2664 62.0671 72.2916 65 75.9982" stroke="#FEFBFC" stroke-width="4" stroke-linecap="round" stroke-linejoin="round"/>
<path d="M57 25.7308C59.5965 24.9752 62.3196 24.803 64.9859 25.226C67.6523 25.6489 70.1999 26.657 72.4572 28.1825C74.7145 29.708 76.6291 31.7154 78.072 34.0695C79.515 36.4236 80.4527 39.0697 80.8221 41.8296C81.1915 44.5896 80.984 47.3992 80.2136 50.0693C79.4431 52.7395 78.1276 55.2081 76.3557 57.3089C74.5837 59.4097 72.3965 61.0939 69.9413 62.2481C67.486 63.4023 64.8198 63.9997 62.1223 64" stroke="#FEFBFC" stroke-width="4" stroke-linecap="round" stroke-linejoin="round"/>
<path d="M62 64C67.0997 63.9967 72.1253 65.0856 76.6511 67.1744C81.1769 69.2633 85.0697 72.2906 88 76" stroke="#FEFBFC" stroke-width="4" stroke-linecap="round" stroke-linejoin="round"/>
</svg>
