<svg width="100" height="100" viewBox="0 0 100 100" fill="none" xmlns="http://www.w3.org/2000/svg">
<path d="M69.5878 18.7449L55.1633 33.1694L57.1079 42.8921L66.8306 44.8367L81.2551 30.4122L81.2565 30.4116C83.0419 34.6261 83.4689 39.2924 82.4781 43.761C81.4873 48.2295 79.1279 52.278 75.7285 55.3428C72.329 58.4077 68.0585 60.3364 63.5116 60.8605C58.9646 61.3847 54.3673 60.4781 50.3597 58.2671L50.3601 58.2664L31.0804 80.5869C29.5329 82.1327 27.4349 83.0006 25.2477 83C23.0605 82.9994 20.963 82.1302 19.4164 80.5836C17.8698 79.037 17.0006 76.9395 17 74.7523C16.9994 72.5651 17.8673 70.4671 19.4131 68.9196L41.7334 49.6401L41.7329 49.6403C39.5219 45.6327 38.6153 41.0354 39.1395 36.4885C39.6636 31.9415 41.5923 27.671 44.6572 24.2716C47.722 20.8721 51.7705 18.5127 56.239 17.5219C60.7076 16.5311 65.3739 16.9581 69.5884 18.7435L69.5878 18.7449Z" stroke="#FEFBFC" stroke-width="4" stroke-linecap="round" stroke-linejoin="round"/>
</svg>
